<mxfile host="app.diagrams.net" modified="2022-12-28T16:18:36.330Z" agent="5.0 (Windows NT 10.0; Win64; x64) AppleWebKit/537.36 (KHTML, like Gecko) Chrome/108.0.0.0 Safari/537.36 Edg/108.0.1462.54" version="20.7.4" etag="yaRpTa3xUm1a9TVb5AOR" type="github">
  <diagram id="4TT7ia4g5PW_RkyG3I8_" name="Page-1">
    <mxGraphModel dx="1050" dy="549" grid="1" gridSize="10" guides="1" tooltips="1" connect="1" arrows="1" fold="1" page="1" pageScale="1" pageWidth="850" pageHeight="1100" math="0" shadow="0">
      <root>
        <mxCell id="0" />
        <mxCell id="1" parent="0" />
        <mxCell id="4K2TGcvV7E_2Tmum8n0E-12" style="edgeStyle=orthogonalEdgeStyle;rounded=0;orthogonalLoop=1;jettySize=auto;html=1;exitX=1;exitY=0.5;exitDx=0;exitDy=0;entryX=-0.009;entryY=0.595;entryDx=0;entryDy=0;entryPerimeter=0;" edge="1" parent="1" source="4K2TGcvV7E_2Tmum8n0E-8" target="4K2TGcvV7E_2Tmum8n0E-5">
          <mxGeometry relative="1" as="geometry" />
        </mxCell>
        <mxCell id="4K2TGcvV7E_2Tmum8n0E-8" value="" style="rounded=1;whiteSpace=wrap;html=1;" vertex="1" parent="1">
          <mxGeometry x="90" y="80" width="260" height="370" as="geometry" />
        </mxCell>
        <mxCell id="4K2TGcvV7E_2Tmum8n0E-1" value="Node 1" style="rounded=0;whiteSpace=wrap;html=1;fillColor=#ffe6cc;strokeColor=#d79b00;" vertex="1" parent="1">
          <mxGeometry x="160" y="150" width="120" height="60" as="geometry" />
        </mxCell>
        <mxCell id="4K2TGcvV7E_2Tmum8n0E-2" value="Node 2" style="rounded=0;whiteSpace=wrap;html=1;fillColor=#ffe6cc;strokeColor=#d79b00;" vertex="1" parent="1">
          <mxGeometry x="160" y="260" width="120" height="60" as="geometry" />
        </mxCell>
        <mxCell id="4K2TGcvV7E_2Tmum8n0E-3" value="Node 3" style="rounded=0;whiteSpace=wrap;html=1;fillColor=#ffe6cc;strokeColor=#d79b00;" vertex="1" parent="1">
          <mxGeometry x="160" y="360" width="120" height="60" as="geometry" />
        </mxCell>
        <mxCell id="4K2TGcvV7E_2Tmum8n0E-5" value="" style="shape=image;verticalLabelPosition=bottom;labelBackgroundColor=default;verticalAlign=top;aspect=fixed;imageAspect=0;image=data:image/png,iVBORw0KGgoAAAANSUhEUgAAAOEAAADhCAMAAAAJbSJIAAAA7VBMVEX///80N0HwTpgAv7MAu673q8nvRJTw+vovMj0ZHixZW2IdIS8nKzeam5/wSpZ/gIX19vbybKcSGCjj5OXu7+/V1tckKDQgJDG6u72PkJQ4O0WsrbAsLzoPFSYWGypMTlbe3+DvOpBrbXPNzc/0iLb71uUrNj4ZNTm36OSMjZFgz8d2eH1FSFC/wMJhY2oAABvxWJ3+8vf6zN/zfLD2o8bSSolLOUqwRXiF2dI1xrzR8O6m494AABGjpKdUVl34ttH1lr/84eyOX3h5O12JQGWeQm+3RntyPVvaS41WOk/FX45/19Dg9fNQzMIAABQmUmrfAAALLUlEQVR4nO2da5uiOBaApaq2GgSrbERARaRkd6sdLWsvU32bsWZ2u7pnd6dn/v/PWS5JyAmEm/gQe/J+UwPkNSHnHHyEwUAikUgkEomkBj/96XR8//e+7WJeX5+Mu+/7lkt4fXNxIq7/3LdbyskMr1/3rYY4leHN3/o2w5zI8OZaiFUm5kSGd//qW4xwGsO7f/TtlXESw7uf+taiOIXh9c99W9GcwPD6n31LAbo3vBElECI6N7y5ECZOpHRueC1OnEjp2vDuL30bsXRsKFScSOnWUJCCCdCpoSgFE6BLQ2EKJkCHhuIUTIDuDAUqmADdGQpUMAE6MxSpYAJ0ZShgIER0ZChWwQToxlCwggnQiaGgcSKlC8Obi74tyujC8E7MQIjowFC8gglwvKG4cSLlaEMRCybAsYZCFkyAIw3FLJgAxxkKHQgRRxmKWjABjjIUtWACHGMobMEEOMJQ9ECIaG8ocMEEaG0ocsEEaGso2i9MfFoaCvcLE5+WhucQCBGvbxIaCgpeMAH+/enTy8vnd1+enqKpV9f0TOJEyvCvKff398rbX16+PF1UawpfMAGGqpKRmL59efef0tEUv2ACAEPsea/8EltyBM8mTqQUGCLLt5+fiiTPoWACcAwTy/v5S24kb27OJ06klBgmkm8/XwDHsyiYAOWGieSnp8zxPAomQKVh7PjfL2iynlUgRNQwjB2Vd7HjuRRMgFqGEffzdzdnUzAB6hpGjur/+u5sK+obqsq47862or6hPum7r+2obbic9t3VltQ1NN2+e9qWmob6qO+Otqaeob2FW33tp7OtqGVo7OFG769+6Ke3bahjqM7hNm+uLq++66e7LahhqBoW2OTj1eXl5dXlq5563JQahloAtngVC8aOH/vpcVOqDZch3OIScyYnY6Whv4AbfLjMFH/tp8/NqDJ0NrD9d1eXlOI5rDcVhsYaNn9PC0aKv/XT6yaUG3or2PoHKBgpfuin2w0oNVTnsGD6yApGCK9YaujAgulrgaD4imWGJiyYXhX5ia9YYsgWTB84hoIvN3xDtmD6rXCOih80uIb2LWz4K1cwUnzfT+drwTP0mIIpFyegosAJHMdQ3cFmb0oFhU7DOYZOQcFUjrDFVLEhp2AqQ9iYUWjILZjK5qmohUaRYUnBVKb4ph+DKgoMSwumMkUxT8W8YUXBVIKYuU3OsLJgKhlEIaMia8j+wlQjTgg+T1nDWgUTFxFDBmO4rFcwcQdRwPUUGtYtmPiK/ViUAQzrF0xcQ/HiPm3YpGDiKgr3sxRlaAzhRw3iBIVwQTEzbFow8QZRtDqKGKpe44KpGNEiBjE0A/B+nYKJM4iCRQxsaLYomHj0Y8IDGbYrmM5iEFPDtgVTMWKdiYlh+4KpeBCFWk5jwyMKpmKEukIcGR5VMBUPokiJTWSoH1UwFRqKdA18qPrHFUzF9GRTxHB5bMFUhEgBY3V0wVSIQPk3I9imYCpCyCs2MUcGQspQyMturQumIgSaphTHB8IMIadpN3ECGwq0mhK6FBQsc0vpJBBS9O2T47iCKY9YBcagwzhBDEXKTQcdFEx5xIoXXcYJjFAX+DsomAoMBToRv16dBIESt1cnom8viUQikUgkEolEIpFIJBKJRCKRSCQSiUQikUgkEskfnO1SS/gx98kMfaIt038AWT+ilujfJOPf09e/h7lNheLWQ38mZD9Y+PieEOivsJaWvtawIXqtC37HZ55huMR/hVXRX5xyhvpZGwY6/jczFvrGDMce+a8v6f+3ZbjDgssH8t43Zbj38BQ9ZG9apppgfgOGtzYSBP/1tearhPn5G47wKsP+1xdyvoYujhPec+mWZ2s4xZGeva06y7kaTjQsyNz0IseZGo4VHCf8oGLLMzV8xnGCvelFHsZwPHVdNyx77Mo4eIibBBX7tcKo1ZT/gJog/vyhpAEDNFwbWDD/fJHxYZFwQLMXGIZrTXNsx/HV2+IhDUYrX3fiJpq+X4DuWWjH0+QgO1OPWun+/qFgL+PF3omOE+1FN3ezek+xAYYbB0f6gueLWI92wmM+HlpDDY+94vnDIO839I3szkSq41CZxGCa7ngZvec6Nrn5jfbMLgTjjW9TezHMbZ2BpA1JwcTe/Sk15GZtE4f4JYdeHphNR0v2Nn06dfulabojezG49cF+HPhVhYbB7MWza6wBlCEpmIojPc/QCVW2/xr8hta6ksPIgi02dG8d2EY16DFaLPN7UZbVMzUzDEjJuypsyTNUdgX3wqQVt07uc4WeJ8hQfWaHSPGoZ9U8FAlWBm3KULNwwcTeN77SEG2m0kPpZyuVS1IIWzNNjWiQezAhQxSn4G5wG+pohu6bvoMb2ZVPJMKG2UjwIn2poaHt9vudbpM3fLIXrGTs3MlgPBnhxcLDgzjV4X6GHhl0g6T+WwN/TaNgPLDcHd6tU9sQY/OeQ1ViqOppCLEWBt4d6f9haXjxsJBZaeEmuG+UoTlL9uMSRTwJJ4/pXtQd/ubWaDd6VeDOGSpq4zHMDjsYk5QBD6I72myHO8XJTu4QbahNWUOSHgU4dzTRXqajze1+Nfces86hQTSqpikxJOcHe5u5akNwOx48220YMugmeAxdxlDLgvzGYJzzu9mkPVdLSzzK0Jhlk39f2JJrqIF5MjHLv6iIdfolGAdoqFLHxe85RZlNCprKJceBhmaWseVu41VuqDJl5NaD0zQPamHMSmzQAsxdFaLwgYakKl5QET+La9qioCXP0GYa49OMWQLG0wd3sXBDi2uo0dEbz3XWMEj28hA1DZsbjrO1nr3/eJmhxqQVYydvHszmyyihjtB9dbNXCw1N+lydFxhai6EZ591x+u6vZ15jw8HUJIpOPhviZm1sgoDmQrbIBUOTyrsVnFo0NQR5d1ShK80NBy5RLHiCKHelYRs+wyGKEsriRw00Mwy8XFLXwnCQLajekG1Z23AIDQ+mUkwjw0DjPTekmSG1oLJPaOSvNOwu4SydkozZczRN021yhEaG5OqKauvRbpxs2jc0pBZUnany6q40A7RgoZVmhRN6ZxNOrMnU3XgkBNc3HOFV0F+7U8sKwtEKT7emhla2oJow2nJXGmZBJ+EtWY/xxUl1mPWfEy3KDEkpkeU4rt3OMLteyl5u40Z8JgW6BRH/gNNHqvsjo6khzlPppAD/ANjYkF5QQY3NXWngzXYtsnnyEo0XXcu2MMT5C33OT1sbUgsqyPm4hjAz3MNoh156dNG/bhzx8YxUqRZu85wm60G23FGJO7+2oB+DtMbnMRpZZEN/C/g8aGFIr2p4TWxjSC2ozoy8WVI9eXN0foSk9MZnJ6pxFIfkcDhvbWIY5s5567lVTkM2p65GkJ6VXcVQHXU9m20VnXw1+OTEZ5Cib+LtxuGarGQNDMf45DaGyQodzJzW8RAdNMtDyMMduGspGkfPoC4XZAVYliVp9lzVqEurTaIFLskUVdfnc12nMrh2htkFsuxJVRxDdTtXclA/PR7y1xJbZN6T/LVEPIgtDekFdV5q6M3C3NEN+opr7jKo3Xwtjb4ojdmLt54fZ0gtqCgJ5xlucsWDBi+drGzw6XI0dZobDmYwgbdXg5pr6VY3Eh5zn+wcA2Em4dp6RC2x4TJ5GV/BD5XsxFcdg63LN0uP+vRhEKIt0bk6XaId04aenbxH3dCX+tVGMZbRtnrSxPYqDN1Ryiz3iTUizILYaIZe4F/X0OskUCyefcc24hL+ueAKyGSj+vFvYujTCb1l9hJ0AR+avtZ2WPl6XOH786QPuEmFYWdY4eJwWIS8y0+Th8Wi7HfPugdxF4vSn2ElEolEIpH8Mfg/F4QuNDcZJS0AAAAASUVORK5CYII=;" vertex="1" parent="1">
          <mxGeometry x="550" y="210" width="92.5" height="92.5" as="geometry" />
        </mxCell>
        <mxCell id="4K2TGcvV7E_2Tmum8n0E-9" value="Elsticsearch Cluster" style="text;html=1;strokeColor=none;fillColor=none;align=center;verticalAlign=middle;whiteSpace=wrap;rounded=0;" vertex="1" parent="1">
          <mxGeometry x="160" y="100" width="120" height="30" as="geometry" />
        </mxCell>
      </root>
    </mxGraphModel>
  </diagram>
</mxfile>
